{"accessors":[{"bufferView":0,"componentType":5123,"count":1794,"max":[730],"min":[0],"type":"SCALAR"},{"bufferView":1,"componentType":5126,"count":731,"max":[1.040505290031433,1.0,1.0],"min":[-1.0,-1.0,-1.0],"type":"VEC3"},{"bufferView":2,"componentType":5126,"count":731,"max":[1.0,1.0,1.0],"min":[-1.0,-1.0,-1.0],"type":"VEC3"},{"bufferView":3,"componentType":5126,"count":731,"max":[1.0,1.0],"min":[0.0,0.0],"type":"VEC2"},{"bufferView":4,"componentType":5123,"count":4932,"max":[1132],"min":[0],"type":"SCALAR"},{"bufferView":5,"componentType":5126,"count":1133,"max":[1.1169253587722778,0.5638706684112549,0.5228477716445923],"min":[-1.0023258924484253,-0.9876977801322937,-0.9878896474838257],"type":"VEC3"},{"bufferView":6,"componentType":5126,"count":1133,"max":[1.0,0.9999555349349976,0.9999555349349976],"min":[-1.0,-0.9999555945396423,-0.9999555945396423],"type":"VEC3"},{"bufferView":7,"componentType":5126,"count":1133,"max":[1.000000238418579,0.9900036603212357],"min":[0.0,0.0],"type":"VEC2"},{"bufferView":8,"componentType":5123,"count":2112,"max":[974],"min":[0],"type":"SCALAR"},{"bufferView":9,"componentType":5126,"count":975,"max":[1.0973011255264282,0.8900394439697266,0.5676435232162476],"min":[-1.002179741859436,-0.9899194836616516,-0.9899498820304871],"type":"VEC3"},{"bufferView":10,"componentType":5126,"count":975,"max":[1.0,1.0,0.9999918341636658],"min":[-1.0,-0.9999999403953552,-0.9999917149543762],"type":"VEC3"},{"bufferView":11,"componentType":5126,"count":975,"max":[1.0,1.0],"min":[0.0,0.0],"type":"VEC2"}],"asset":{"generator":"Soft8Soft Verge3D for Blender add-on","version":"2.0"},"bufferViews":[{"buffer":0,"byteLength":3588,"byteOffset":0,"target":34963},{"buffer":0,"byteLength":8772,"byteOffset":3588,"target":34962},{"buffer":0,"byteLength":8772,"byteOffset":12360,"target":34962},{"buffer":0,"byteLength":5848,"byteOffset":21132,"target":34962},{"buffer":0,"byteLength":9864,"byteOffset":26980,"target":34963},{"buffer":0,"byteLength":13596,"byteOffset":36844,"target":34962},{"buffer":0,"byteLength":13596,"byteOffset":50440,"target":34962},{"buffer":0,"byteLength":9064,"byteOffset":64036,"target":34962},{"buffer":0,"byteLength":4224,"byteOffset":73100,"target":34963},{"buffer":0,"byteLength":11700,"byteOffset":77324,"target":34962},{"buffer":0,"byteLength":11700,"byteOffset":89024,"target":34962},{"buffer":0,"byteLength":7800,"byteOffset":100724,"target":34962}],"buffers":[{"byteLength":108524,"uri":"altiotfinalproject copy.bin"}],"cameras":[{"extensions":{"S8S_v3d_camera_data":{"controls":"ORBIT","enablePan":true,"moveSpeed":1.0,"orbitMaxDistance":100.0,"orbitMaxPolarAngle":3.1415927410125732,"orbitMaxZoom":100.0,"orbitMinDistance":0.0,"orbitMinPolarAngle":0.0,"orbitMinZoom":0.009999999776482582,"orbitTarget":[0.0,0.0,-0.0],"rotateSpeed":1.0,"viewportFitInitialAspect":1.7777777777777777,"viewportFitType":"AUTO"}},"name":"Camera","perspective":{"aspectRatio":1.7777777777777777,"yfov":0.39959648408210363,"zfar":100.0,"znear":0.10000000149011612},"type":"perspective"}],"extensions":{"S8S_v3d_data":{"lights":[{"color":[1.0,1.0,1.0],"decay":2,"distance":37.82063003687267,"intensity":1430.4000244140625,"name":"Light","profile":"blender","shadow":{"bias":-0.0018,"cameraFar":37.82063003687267,"cameraFov":0,"cameraNear":0.05000000074505806,"enabled":true,"expBias":2.5,"mapSize":512,"radius":1.0,"slopeScaledBias":2.5},"type":"point"},{"color":[1.0,1.0,1.0],"decay":2,"distance":31.622776955095866,"intensity":1000.0,"name":"Light.001","profile":"blender","shadow":{"bias":-0.0018,"cameraFar":31.622776955095866,"cameraFov":0,"cameraNear":0.05000000074505806,"enabled":true,"expBias":2.5,"mapSize":512,"radius":1.0,"slopeScaledBias":2.5},"type":"point"}]}},"extensionsUsed":["S8S_v3d_material_data","S8S_v3d_camera_data","S8S_v3d_data","S8S_v3d_mesh_data","S8S_v3d_node_data","S8S_v3d_scene_data"],"materials":[{"extensions":{"S8S_v3d_material_data":{"gtaoVisible":true,"materialIndex":0,"nodeGraph":{"edges":[{"fromNode":1,"fromOutput":0,"toInput":0,"toNode":0}],"nodes":[{"inputs":[[0,0,0,0],[0,0,0,0],[0.0,0.0,0.0]],"is_active_output":true,"name":"Material Output","outputs":[],"type":"OUTPUT_MATERIAL_BL"},{"inputs":[[0.0,0.0,0.0,1.0],0.0,[1.0,0.20000000298023224,0.10000000149011612],[0.0,0.0,0.0,1.0],1.399999976158142,0.0,0.46783626079559326,0.33625727891921997,0.5906432867050171,0.704094409942627,0.0,0.0,0.0,0.21929825842380524,0.1111111044883728,0.19374269247055054,1.4500000476837158,0.0,0.0,[0.0,0.0,0.0,1.0],1.0,1.0,[0.0,0.0,0.0],[0.0,0.0,0.0],[0.0,0.0,0.0]],"is_active_output":false,"name":"Principled BSDF","outputs":[[0,0,0,0]],"type":"BSDF_PRINCIPLED_BL"}]},"useCastShadows":true}},"name":"Material"},{"extensions":{"S8S_v3d_material_data":{"gtaoVisible":true,"materialIndex":0,"nodeGraph":{"edges":[{"fromNode":0,"fromOutput":0,"toInput":0,"toNode":1}],"nodes":[{"inputs":[[0.0,0.0,0.0,1.0],0.0,[1.0,0.20000000298023224,0.10000000149011612],[0.0,0.0,0.0,1.0],1.399999976158142,0.0,0.4093567132949829,0.12280702590942383,0.0,0.15123078227043152,0.0,0.0,1.0,0.5,0.0,0.029999999329447746,1.4500000476837158,0.0,0.0,[0.0,0.0,0.0,1.0],1.0,1.0,[0.0,0.0,0.0],[0.0,0.0,0.0],[0.0,0.0,0.0]],"is_active_output":false,"name":"Principled BSDF","outputs":[[0,0,0,0]],"type":"BSDF_PRINCIPLED_BL"},{"inputs":[[0,0,0,0],[0,0,0,0],[0.0,0.0,0.0]],"is_active_output":true,"name":"Material Output","outputs":[],"type":"OUTPUT_MATERIAL_BL"}]},"useCastShadows":true}},"name":"Material.001"},{"extensions":{"S8S_v3d_material_data":{"gtaoVisible":true,"materialIndex":0,"nodeGraph":{"edges":[{"fromNode":0,"fromOutput":0,"toInput":0,"toNode":1}],"nodes":[{"inputs":[[0.017388412728905678,0.017388412728905678,0.017388412728905678,1.0],0.0,[1.0,0.20000000298023224,0.10000000149011612],[0.0,0.0,0.0,1.0],1.399999976158142,0.0,0.1744185984134674,0.23391813039779663,0.0,1.0,0.0,0.0,0.0,0.06976744532585144,0.0,0.029999999329447746,1.4500000476837158,0.0,0.0,[0.0,0.0,0.0,1.0],1.0,1.0,[0.0,0.0,0.0],[0.0,0.0,0.0],[0.0,0.0,0.0]],"is_active_output":false,"name":"Principled BSDF","outputs":[[0,0,0,0]],"type":"BSDF_PRINCIPLED_BL"},{"inputs":[[0,0,0,0],[0,0,0,0],[0.0,0.0,0.0]],"is_active_output":true,"name":"Material Output","outputs":[],"type":"OUTPUT_MATERIAL_BL"}]},"useCastShadows":true}},"name":"Material.002"},{"extensions":{"S8S_v3d_material_data":{"gtaoVisible":true,"materialIndex":0,"nodeGraph":{"edges":[{"fromNode":1,"fromOutput":0,"toInput":0,"toNode":0}],"nodes":[{"inputs":[[0,0,0,0],[0,0,0,0]],"is_active_output":true,"name":"World Output","outputs":[],"type":"OUTPUT_WORLD_BL"},{"inputs":[[0.05087608844041824,0.05087608844041824,0.05087608844041824,1.0],1.0],"is_active_output":false,"name":"Background","outputs":[[0,0,0,0]],"type":"BACKGROUND_BL"}]},"useCastShadows":true}},"name":"Verge3D_Environment_World"}],"meshes":[{"extensions":{"S8S_v3d_mesh_data":{"colorLayers":{},"uvLayers":{"UVMap":"TEXCOORD_0"}}},"name":"Cube","primitives":[{"attributes":{"NORMAL":2,"POSITION":1,"TEXCOORD_0":3},"indices":0,"material":0,"mode":4},{"attributes":{"NORMAL":6,"POSITION":5,"TEXCOORD_0":7},"indices":4,"material":1,"mode":4},{"attributes":{"NORMAL":10,"POSITION":9,"TEXCOORD_0":11},"indices":8,"material":2,"mode":4}]}],"nodes":[{"extensions":{"S8S_v3d_node_data":{"frustumCulling":true,"groupNames":["Collection"],"hidden":false,"hidpiCompositing":false,"objectColor":[1.0,1.0,1.0],"objectIndex":0,"renderOrder":0,"useShadows":true}},"mesh":0,"name":"Cube"},{"extensions":{"S8S_v3d_node_data":{"frustumCulling":true,"groupNames":["Collection"],"hidden":false,"hidpiCompositing":false,"light":0,"objectColor":[0.0,0.0,0.0],"objectIndex":0,"renderOrder":0}},"name":"Light","rotation":[-0.2841663062572479,0.7269423604011536,0.3420339524745941,0.5232754945755005],"scale":[1.2512720823287964,2.230625629425049,1.7734133005142212],"translation":[-4.0241594314575195,-3.2721242904663086,-3.516313314437866]},{"extensions":{"S8S_v3d_node_data":{"frustumCulling":true,"groupNames":["Collection"],"hidden":false,"hidpiCompositing":false,"light":1,"objectColor":[0.0,0.0,0.0],"objectIndex":0,"renderOrder":0}},"name":"Light.001","rotation":[-0.2841663062572479,0.7269423604011536,0.34203389286994934,0.5232754945755005],"scale":[0.9999999403953552,0.9999997019767761,0.9999999403953552],"translation":[4.643764972686768,0.23214539885520935,0.8130209445953369]},{"camera":0,"extensions":{"S8S_v3d_node_data":{"frustumCulling":true,"groupNames":["Collection"],"hidden":false,"hidpiCompositing":false,"objectColor":[0.0,0.0,0.0],"objectIndex":0,"renderOrder":0}},"name":"Camera","rotation":[-0.3604123294353485,-0.07590984553098679,-0.08013654500246048,0.9262390732765198],"scale":[1.0,0.9999998211860657,0.9999998807907104],"translation":[-3.856448173522949,8.686777114868164,6.925790786743164]}],"scene":0,"scenes":[{"extensions":{"S8S_v3d_scene_data":{"aaMethod":"AUTO","iblEnvironmentMode":"PMREM","physicallyCorrectLights":true,"pmremMaxTileSize":512,"shadowMap":{"esmDistanceScale":1.0,"renderReverseSided":false,"renderSingleSided":true,"type":"PCFPOISSON"},"toneMapping":{"type":"filmicBlender"},"worldMaterial":3}},"extras":{"animFrameRate":24,"coordSystem":"Z_UP_RIGHT"},"name":"Scene","nodes":[0,1,3,2]}]}
